<svg version="1.1" id="Layer_1" xmlns="http://www.w3.org/2000/svg" xmlns:xlink="http://www.w3.org/1999/xlink" x="0px" y="0px"
	 width="100%" viewBox="0 0 720 1024" enable-background="new 0 0 720 1024" xml:space="preserve">
<path fill="#000000" opacity="1.000000" stroke="none" 
	d="
M215.899612,798.761963 
	C214.549896,800.579651 214.345093,802.945251 212.019516,803.347107 
	C210.477341,803.089600 210.324112,801.845093 209.833694,800.805786 
	C207.880600,796.667114 206.757431,796.529602 203.766022,800.211487 
	C201.934341,802.465881 198.452759,803.126404 197.850449,806.637329 
	C197.703156,807.495911 196.142532,807.914246 195.223816,807.426025 
	C190.042007,804.672607 184.965378,807.251099 180.153610,807.770508 
	C178.311249,806.612183 179.183334,804.775024 178.462051,803.434082 
	C176.265594,803.375122 174.454773,805.259460 171.697342,804.323914 
	C172.710953,796.253418 177.533508,789.057129 178.595566,781.177917 
	C175.949753,779.637085 175.130035,782.174072 173.417999,782.212646 
	C173.369202,781.458618 173.321472,780.720947 173.274979,780.002502 
	C171.995544,779.517395 171.456024,781.762268 169.885193,780.536621 
	C168.741180,778.483032 169.211273,776.137268 170.368591,774.153137 
	C174.004364,767.920044 177.089737,761.522339 183.799606,757.332153 
	C189.318375,753.885803 190.618576,746.674805 193.849060,741.173218 
	C199.028824,732.351746 203.285461,722.880249 212.272598,716.928650 
	C214.100021,715.718445 214.976898,713.583252 215.853714,711.602539 
	C222.781250,695.953430 229.253433,680.157471 233.657608,663.546326 
	C235.780426,655.539612 239.765503,648.141174 242.417450,640.245178 
	C245.037964,632.442749 247.259491,624.744812 247.276764,616.468567 
	C247.296066,607.224121 250.994705,598.705627 252.944427,589.849487 
	C253.898636,585.515198 253.348343,580.856079 255.854996,577.551453 
	C255.121811,575.208191 253.277512,577.378540 253.146255,576.973450 
	C254.244308,570.760986 255.110229,565.375854 253.524734,560.548584 
	C252.413086,557.163940 251.688782,553.178040 248.731491,550.415405 
	C247.425476,549.195312 247.913712,547.275269 247.805954,545.630676 
	C247.677124,543.664795 247.853989,541.584717 245.902924,540.206238 
	C243.947433,540.379456 243.891235,542.126831 243.226959,543.369629 
	C241.395874,546.795349 240.307983,550.660156 236.540375,552.840759 
	C234.736328,553.884949 234.126953,556.567383 234.704758,558.093262 
	C236.159027,561.933533 234.902267,564.817627 232.469696,567.912903 
	C234.694397,570.143311 234.497467,572.470825 233.419678,575.406067 
	C230.987213,582.030640 227.997253,588.625610 229.266739,596.607361 
	C226.457977,594.720398 224.108246,592.659729 221.678329,596.632507 
	C225.212082,584.861694 224.093948,572.657288 230.152237,562.059570 
	C222.662415,558.093079 215.634521,558.286316 207.907501,561.841003 
	C209.137100,556.031677 212.367722,551.891541 211.128708,546.523132 
	C210.206314,542.526550 208.139893,539.156921 206.690277,535.482910 
	C205.008804,531.221313 204.753571,526.952148 206.069992,522.880859 
	C208.609192,515.027710 209.119293,507.373474 206.335892,499.503326 
	C203.874115,492.542603 207.023254,487.379486 211.519485,482.163483 
	C216.139175,476.804199 220.382904,470.838318 218.318207,462.862549 
	C217.667282,460.348114 219.184937,458.343323 220.487411,456.439453 
	C221.893509,454.384125 223.549545,452.500031 225.091431,450.537231 
	C228.840454,445.764709 232.848297,441.302368 231.927383,434.319214 
	C231.353317,429.966217 234.239059,426.022186 235.788544,422.086243 
	C238.378632,415.506958 235.212173,410.175293 232.194092,405.677338 
	C230.598572,403.299500 228.338531,401.514679 227.277817,398.279816 
	C224.615494,390.160461 229.339508,385.139130 233.870117,379.874176 
	C235.145065,378.392609 237.181793,377.614685 238.107254,375.214935 
	C232.964554,372.911896 226.620941,372.421417 223.671356,366.670105 
	C222.585815,364.553497 222.798813,362.264038 223.679291,359.276337 
	C227.416794,364.541687 232.287811,366.618530 237.829849,367.497742 
	C240.335617,367.895264 242.841919,367.549225 244.059036,365.405090 
	C246.451736,361.189911 250.332779,360.751007 254.356339,360.674255 
	C263.057159,360.508270 265.213959,362.136047 266.951050,349.698914 
	C269.831879,350.091187 271.625793,352.173218 271.670807,354.501465 
	C271.742737,358.225311 268.361084,360.561707 265.592896,361.670715 
	C260.730103,363.618958 259.081818,367.354370 257.446350,371.462219 
	C262.176056,375.301025 267.871613,377.011322 272.879547,379.511841 
	C279.242218,382.688751 284.129150,387.264618 289.813110,390.850708 
	C293.654205,393.274139 295.495056,396.467712 298.352417,398.993500 
	C302.429901,402.597900 303.182556,406.947571 305.026703,411.174957 
	C307.973511,417.930054 309.555969,418.224701 315.668091,414.119965 
	C320.149292,411.110504 324.260315,408.118317 325.966339,402.562286 
	C327.161621,398.669495 326.125244,395.043823 325.760071,391.309235 
	C325.088501,384.440857 325.877106,377.478485 324.474213,370.666229 
	C324.023621,368.478119 325.175842,367.318268 326.632568,366.040802 
	C330.053986,363.040497 334.203766,361.110382 336.984283,357.010345 
	C338.487671,354.793457 342.836914,354.476898 345.927063,353.372192 
	C351.321991,351.443604 354.574890,347.478760 354.485931,341.996643 
	C354.395081,336.398773 356.517914,331.347565 357.544952,326.043243 
	C359.221588,317.383820 363.015991,308.959900 361.257751,299.746033 
	C360.571167,296.148071 361.333618,292.505188 362.197388,288.805695 
	C362.828827,288.995850 363.584961,289.016510 363.685822,289.284088 
	C366.524261,296.815918 370.685852,303.899841 369.929138,312.524445 
	C369.344543,319.187561 367.845123,326.065186 371.365204,332.500427 
	C374.254578,337.782684 377.659729,342.571289 383.721649,344.533966 
	C386.282654,345.363129 388.356812,345.030365 390.016632,342.223114 
	C393.007782,337.164215 397.518219,332.887299 396.972351,326.254730 
	C396.843262,324.686218 398.269562,323.708130 399.333282,322.612762 
	C403.373444,318.452362 403.486023,313.253479 402.342804,308.102722 
	C401.698090,305.198090 398.819550,303.232269 396.197662,302.865723 
	C393.535034,302.493500 391.182892,304.737915 390.282166,307.434967 
	C389.255585,310.508820 387.628571,313.148010 385.683746,315.657684 
	C384.586060,317.074280 383.379761,318.228180 381.525513,316.833496 
	C379.928345,315.632172 379.005402,314.159576 380.032410,312.095581 
	C380.772034,310.609192 381.565063,309.143951 382.208771,307.616394 
	C383.350250,304.907745 383.149445,302.384460 380.795959,300.347595 
	C375.298553,295.589752 375.548004,288.447296 373.707825,282.289001 
	C372.930817,279.688690 372.359100,277.301575 370.540741,275.309998 
	C369.121979,273.756073 367.479919,272.649963 365.250427,273.413147 
	C363.237701,274.102112 362.636383,275.898193 362.299622,277.722778 
	C361.828735,280.273895 362.339966,283.062836 360.205048,285.477539 
	C358.003876,282.842773 357.010315,280.022949 356.172333,276.689301 
	C354.228271,268.954987 349.932861,262.101318 346.065613,255.171753 
	C341.686096,247.324188 335.018341,241.665985 327.810760,236.357635 
	C314.986237,226.912445 303.482513,215.863235 291.624695,205.247803 
	C287.975891,201.981323 284.227600,198.557938 278.993103,197.547256 
	C277.119446,197.185471 275.215424,195.890182 274.853333,193.630569 
	C273.601807,185.820709 267.103485,181.910233 262.199493,176.982330 
	C255.604782,170.355515 247.652710,165.472290 239.094879,161.634247 
	C238.194214,161.230301 237.361786,160.308563 236.359665,160.789658 
	C229.078064,164.285431 220.391464,164.598648 214.428284,171.180801 
	C210.017197,176.049728 203.772507,179.124939 200.585968,185.300552 
	C199.882263,186.664352 199.273224,187.916443 199.135315,189.434662 
	C198.350952,198.070648 195.207230,206.397018 195.746307,215.209656 
	C195.766205,215.535004 195.515167,215.980408 195.657196,216.179794 
	C200.061996,222.363129 195.459885,228.845612 196.290817,235.003281 
	C198.093704,248.363831 198.386749,262.326141 208.311035,273.254456 
	C210.726273,275.914032 213.645538,276.632324 216.794128,276.564941 
	C218.846786,276.521027 220.110001,277.091736 221.559601,278.477448 
	C228.165726,284.792542 232.204956,292.172821 232.263672,301.532349 
	C232.286453,305.163422 230.883865,308.333435 229.855942,311.666534 
	C228.597885,315.745911 227.609680,319.908508 226.516235,323.992401 
	C224.734909,324.249298 224.019791,322.812347 224.044968,321.936188 
	C224.171509,317.533234 221.861969,316.185059 217.859833,315.448822 
	C213.533737,314.653046 213.348694,312.921173 216.495697,309.797516 
	C212.477310,301.894073 204.439438,298.295715 198.257507,292.710175 
	C197.101791,291.665985 195.309982,291.144379 193.721085,290.800842 
	C190.887787,290.188354 188.638565,289.021973 188.028931,285.983643 
	C187.408539,282.891602 188.586899,280.179413 191.076096,278.551697 
	C196.782425,274.820312 196.455521,269.106537 195.459900,263.879608 
	C192.571457,248.715363 190.166260,233.479965 187.972504,218.211823 
	C187.545105,215.237289 185.695755,214.091263 183.798584,212.476959 
	C174.870132,204.879837 169.724762,195.111115 167.651733,183.639954 
	C172.741196,186.828171 172.485397,193.107483 175.680237,197.496155 
	C178.920197,201.946777 185.123932,202.947388 186.269058,208.968216 
	C190.038620,207.107208 189.798447,204.287918 190.313522,202.017365 
	C192.754776,191.255768 195.918655,180.836853 203.056183,172.088211 
	C206.650391,167.682724 210.576431,163.647125 215.426102,160.578125 
	C216.804596,159.705765 218.424133,158.777222 218.137283,156.756348 
	C217.856750,154.779922 216.791656,153.339508 214.639709,153.087250 
	C211.264145,152.691544 211.167999,148.250061 207.185699,148.034164 
	C215.365448,144.426346 222.375275,146.080307 229.537125,149.003418 
	C236.451584,151.825592 243.296616,154.410141 249.421448,159.013290 
	C255.354080,163.472015 262.259033,166.613205 268.547699,170.629395 
	C273.717407,173.930969 278.820648,176.920807 282.148041,182.909637 
	C287.649597,192.811737 296.709534,200.004791 304.354309,208.281906 
	C309.424591,213.771591 316.094330,216.950851 321.331360,221.841202 
	C327.759338,227.843658 334.534515,233.426880 341.053772,239.305069 
	C349.535889,246.953110 358.769501,253.792709 367.001312,261.687561 
	C379.832520,273.993530 392.088531,286.887238 404.269745,299.860413 
	C409.620575,305.559174 411.400940,313.283417 417.488342,318.214691 
	C420.772156,320.874847 424.252075,323.284607 427.165131,326.567841 
	C429.772888,329.506989 439.423676,322.770355 439.823151,317.715881 
	C440.262177,312.161530 439.516327,306.531189 435.829285,302.266876 
	C429.607697,295.071259 424.324158,287.194611 416.406097,281.224701 
	C411.017944,277.162231 407.494781,270.315216 402.981659,264.830292 
	C401.621307,263.177002 400.711182,261.166870 398.786194,259.992676 
	C396.363007,258.514618 395.475494,256.041138 395.738617,253.537338 
	C396.288147,248.308014 394.437622,244.174316 391.003448,240.467209 
	C389.848236,239.220139 389.318146,237.677124 390.213440,234.582184 
	C408.168793,255.226257 424.975494,275.589966 441.300110,297.080444 
	C442.711639,292.384521 439.809845,288.999237 438.517303,285.370483 
	C435.011841,275.528656 431.266205,265.772339 427.612000,255.983582 
	C424.026917,246.380066 420.201782,236.928436 414.898590,228.060165 
	C408.188049,216.838425 400.680237,205.991913 396.636230,193.352631 
	C396.203461,192.000031 395.098175,190.754623 395.824524,189.153534 
	C402.603271,191.947830 405.724518,198.245041 409.569763,203.632294 
	C413.238037,208.771622 416.829346,213.908920 420.989929,218.686707 
	C424.538239,222.761353 425.330383,228.371536 427.919525,232.991486 
	C432.345734,240.889404 439.072388,247.439896 441.665771,256.426392 
	C442.032227,257.696198 442.761719,258.937653 442.803619,260.209381 
	C442.903351,263.235413 440.564575,264.560486 437.969971,263.069672 
	C436.716339,262.349365 435.731659,260.935486 433.338379,262.034332 
	C434.655792,268.198822 437.976624,273.437225 441.501312,279.326233 
	C443.229828,275.805878 440.962219,272.703644 442.624329,269.644867 
	C445.795013,271.491150 446.426392,274.535187 446.381836,277.566498 
	C446.338379,280.526398 445.635223,283.468018 448.231201,286.037994 
	C454.054199,281.527527 446.297852,276.065460 449.786499,271.540527 
	C454.432709,272.111389 450.359497,278.333984 454.928772,279.394745 
	C458.184845,271.481415 459.342255,263.539520 457.341461,255.073914 
	C456.244354,250.431976 455.640503,245.634384 454.888397,240.917374 
	C454.378784,237.721161 451.231750,234.845718 448.990997,232.045502 
	C443.892731,225.674332 440.144897,218.791122 439.724121,210.433868 
	C439.531342,206.605591 437.610138,203.147629 437.434113,199.237152 
	C437.346893,197.299957 436.141632,194.933655 433.085022,195.699036 
	C430.446411,196.359726 429.155243,194.749451 427.995605,192.717804 
	C424.525330,186.637863 422.925110,179.700272 419.155212,173.748306 
	C417.606659,171.303375 416.034943,168.951340 413.293854,167.819946 
	C408.919495,166.014404 407.562531,161.099899 403.680237,159.131531 
	C403.848480,157.975281 404.552490,157.385590 405.079559,157.688690 
	C411.916290,161.620041 419.318909,164.928406 423.951324,171.687332 
	C426.753937,175.776520 428.985077,180.273422 431.280884,184.687042 
	C432.401245,186.841003 433.277527,188.532867 436.265930,188.709351 
	C439.231262,188.884476 441.283234,191.297745 442.395752,193.974518 
	C448.370514,208.349792 458.874786,220.142197 465.253204,234.275085 
	C465.897125,235.701843 466.875275,236.750336 468.225525,237.455978 
	C475.439758,233.362885 477.817017,228.946640 474.810242,221.078476 
	C470.266388,209.188217 468.268066,196.433197 462.290985,185.062744 
	C460.201813,181.088425 459.736389,176.485657 457.399750,172.568954 
	C455.925507,170.097870 455.765839,166.706558 451.841736,166.287262 
	C450.625702,166.157333 450.411621,164.502121 450.126617,163.428299 
	C447.423553,153.243668 443.619141,143.439651 440.012115,133.562698 
	C439.035065,130.887253 438.203674,128.167038 436.406952,125.931503 
	C433.036346,121.737747 433.674194,116.105362 430.895355,111.472931 
	C429.143005,108.551727 425.903015,106.216431 425.047455,101.181343 
	C430.728271,104.895340 433.239716,109.908417 435.958313,114.249130 
	C443.533295,126.343956 448.610840,139.746994 454.518311,152.706497 
	C456.592560,157.256897 459.453094,161.003616 464.035370,163.905563 
	C465.126404,161.160690 462.506683,159.389359 463.758301,156.920792 
	C467.903320,158.655151 467.792511,163.119644 469.059448,166.163818 
	C472.387360,174.159988 476.505005,181.803711 479.555542,189.893097 
	C481.291351,194.495987 483.628571,199.034927 482.472748,204.400711 
	C481.984924,206.665192 484.937683,207.989883 485.388794,210.402847 
	C487.418640,221.259476 491.064117,231.614334 491.899353,242.960434 
	C492.540680,251.672546 488.944275,256.840302 485.159393,263.161743 
	C480.952240,270.188446 477.325256,277.481934 477.895386,286.321472 
	C478.282715,292.325775 476.887848,298.254822 471.481445,302.360260 
	C468.570770,304.570496 465.941925,307.153961 463.207031,309.592682 
	C461.845001,310.807220 460.528168,311.973389 460.283997,314.041229 
	C459.067078,324.348022 453.678589,331.284821 443.959045,335.340393 
	C432.662720,340.053925 431.383881,343.339111 434.713959,355.144653 
	C435.348602,357.394562 435.348602,357.394562 434.536316,361.226624 
	C432.703430,356.782867 427.168365,355.618011 429.797546,349.070282 
	C431.075562,345.887512 429.189850,339.483887 425.942535,336.984344 
	C420.737274,332.977753 417.030212,327.306976 410.898529,324.269806 
	C408.497711,323.080627 406.517181,322.427216 404.828674,322.600922 
	C398.873779,329.936462 399.192108,340.331451 390.566589,345.427032 
	C389.279938,346.187103 389.374634,347.614288 389.070343,348.927124 
	C387.552063,355.478241 385.945740,361.607971 392.319977,367.181488 
	C394.292450,368.906250 395.021912,372.944275 396.781036,375.763428 
	C398.981567,379.290039 396.632874,389.039825 393.213226,391.759155 
	C391.241821,393.326813 390.561005,395.833649 389.299347,397.493927 
	C386.960022,400.572357 385.695435,404.454407 382.693359,406.989655 
	C379.207397,409.933594 377.744049,414.301971 374.894135,417.687439 
	C369.697235,423.860931 371.568115,431.667297 370.832794,438.663086 
	C370.426239,442.531067 369.181122,444.861023 366.742249,447.012482 
	C360.109039,452.864014 353.921875,459.013092 344.934631,461.960236 
	C340.748352,463.333008 338.049164,468.835297 335.037781,472.849396 
	C328.544006,481.505615 327.894409,492.261902 323.930511,501.803040 
	C320.019592,511.216644 315.272278,519.730713 304.583191,523.074463 
	C301.347900,524.086487 300.228943,527.401550 298.863342,530.283447 
	C296.814209,534.607849 295.127289,539.046204 288.758331,538.940369 
	C286.661163,538.905518 284.706146,542.261780 282.345032,543.263306 
	C279.095856,544.641541 280.072327,547.221863 279.644775,549.530762 
	C279.074463,552.610962 277.998322,555.021912 274.048828,555.315857 
	C268.659424,555.716980 266.179840,559.054077 264.990540,564.323914 
	C262.799500,574.032166 261.246063,583.846069 260.319122,593.707825 
	C259.995850,597.147339 257.696381,602.381409 263.999664,603.992554 
	C265.516022,604.380127 265.714478,606.304688 265.782196,607.328979 
	C266.161743,613.069336 270.204193,618.091553 266.543518,624.780884 
	C263.050720,631.163513 266.253265,638.777710 267.189026,646.161926 
	C269.914032,645.424255 271.798462,644.914062 275.550903,643.898193 
	C270.206726,652.573120 265.820221,660.371582 270.258057,668.886047 
	C264.430298,671.279846 258.517487,666.683594 253.414841,670.255188 
	C246.108170,675.369507 241.972870,683.115723 241.515350,691.618225 
	C241.096939,699.394165 243.803375,707.169617 245.683746,714.868164 
	C247.508484,722.338867 251.605103,727.730225 257.876801,731.908569 
	C260.798981,733.855469 261.494995,737.275330 262.416351,740.545166 
	C263.848846,745.629089 265.530457,751.083923 269.093719,754.712402 
	C271.943878,757.614685 274.327209,760.522095 274.756470,764.154053 
	C275.794495,772.937195 279.785583,780.726135 282.095917,789.044373 
	C284.849274,798.957397 288.798187,813.004211 295.360138,819.436951 
	C298.671234,822.682861 300.742279,827.597473 300.541779,832.997620 
	C296.122040,833.278076 294.586853,829.972961 293.705048,827.286255 
	C292.451538,823.466858 290.196350,820.137573 289.121277,816.266602 
	C288.152069,812.776794 286.202301,810.872864 282.781219,813.961182 
	C278.847107,809.504333 279.416809,803.442322 276.300964,798.875793 
	C274.321075,795.974060 272.458893,794.215027 269.220398,797.157532 
	C268.738281,797.595520 268.053070,797.810730 267.573639,798.250793 
	C260.657745,804.598450 254.971497,802.288696 249.286301,796.168884 
	C246.545135,793.218140 242.914764,791.589661 238.432205,793.458008 
	C235.937576,794.497803 233.569504,792.526184 231.474075,791.359070 
	C224.237244,787.328430 221.274246,788.143188 217.335800,795.746826 
	C216.879105,796.628479 216.502411,797.551575 215.899612,798.761963 
M273.285767,432.213837 
	C276.649506,434.931183 279.956909,435.918030 282.809021,431.534546 
	C286.758667,436.397400 286.758667,436.397400 290.892853,432.428650 
	C289.334534,431.202515 289.511932,427.694824 287.582550,427.965790 
	C281.932037,428.759399 282.324066,425.931061 283.567078,422.306366 
	C278.167145,420.433319 275.825897,417.550110 274.865875,411.535248 
	C274.571869,409.693176 274.306549,407.907806 272.718506,406.678375 
	C266.548676,401.901764 261.546997,395.651306 253.178833,393.793671 
	C249.237335,392.918701 247.250107,394.997894 244.679672,396.436981 
	C242.772644,397.504669 243.035950,399.469208 243.833130,401.311707 
	C245.077148,404.186920 247.359222,405.000610 250.297379,404.867249 
	C253.929016,404.702454 257.571320,404.595642 261.203125,404.690033 
	C262.895630,404.734039 264.417999,405.227783 264.114166,407.702332 
	C263.199036,415.155792 262.955322,422.428741 270.032745,427.619324 
	C271.277954,428.532532 271.877014,430.326843 273.285767,432.213837 
z"/>
<path fill="#000000" opacity="1.000000" stroke="none" 
	d="
M494.635010,718.278198 
	C497.744080,720.990906 500.008057,725.238403 504.988098,720.972961 
	C507.265381,719.022583 506.781189,717.102295 506.470703,715.246216 
	C505.561523,709.811523 503.878021,704.475403 500.696350,699.974976 
	C497.619812,695.623169 496.438751,691.153137 497.323029,685.989136 
	C497.691193,683.838989 496.790222,682.112793 495.185883,680.701111 
	C494.200867,679.834412 492.467896,678.964111 492.418579,678.024658 
	C492.070099,671.386292 487.362183,665.951538 487.588318,659.103577 
	C487.706604,655.522705 486.714630,651.868286 485.964142,648.301819 
	C482.168823,630.265869 479.377411,612.173645 478.081665,593.697388 
	C477.566040,586.344971 476.074097,578.458313 474.429199,570.917480 
	C471.550079,557.718079 472.817810,544.698181 475.438904,531.504333 
	C477.537689,520.939636 480.661041,510.634125 482.797729,499.841370 
	C481.621460,500.099731 480.741241,500.293091 479.559540,500.552673 
	C478.611938,497.832458 479.003265,495.413147 479.956238,492.834412 
	C483.800537,482.431763 488.509186,472.187897 490.783386,461.437927 
	C491.816681,456.553528 492.803802,450.621094 491.438843,444.885345 
	C486.116028,445.453033 489.406342,451.894226 484.923218,453.028046 
	C481.438538,449.407410 477.289246,447.891785 472.151184,451.245117 
	C471.049866,451.963837 468.496887,452.680023 467.082397,450.849915 
	C465.953339,449.389099 466.516907,447.568573 467.086121,446.045319 
	C473.634644,428.520905 480.069489,410.942047 491.259003,395.631195 
	C495.169708,390.280060 496.747620,389.924652 499.703827,395.862152 
	C505.065887,406.631775 513.531433,415.359955 518.777039,426.152130 
	C520.565369,429.831421 520.849609,432.430939 518.563049,436.808044 
	C515.382935,442.895477 512.968994,450.294312 515.434937,458.315826 
	C519.511658,455.215485 522.556885,451.629578 526.707397,449.483429 
	C528.517151,448.547638 530.576355,447.054840 532.029053,449.192413 
	C533.521667,451.388702 532.208496,453.533783 530.290955,455.206543 
	C527.743042,457.429260 524.708862,458.835724 521.663635,460.075439 
	C513.254150,463.498962 507.642426,469.027100 503.914825,477.672577 
	C501.540314,483.179810 500.433167,489.613403 495.324951,494.090912 
	C492.024506,496.983887 495.408936,500.764648 496.243134,503.930786 
	C494.899689,505.728119 494.190521,503.454315 493.290466,503.720398 
	C490.084320,507.530212 490.713745,512.039368 490.320190,516.463257 
	C488.945282,531.917908 486.950256,547.319031 485.666962,562.779907 
	C484.337585,578.796265 487.244598,594.629211 488.467072,610.536133 
	C488.793091,614.778625 489.582245,618.931152 489.967621,623.125061 
	C490.303894,626.784912 491.774445,627.759888 495.121948,627.028259 
	C496.580750,624.622131 496.739838,622.049866 495.751556,619.443054 
	C494.331726,615.697937 496.695282,612.433533 497.255859,609.015747 
	C498.591492,600.872070 503.373352,593.660767 504.565155,585.372620 
	C504.587738,585.215576 504.661133,584.984497 504.775543,584.933777 
	C510.736633,582.288696 511.099976,575.412231 515.107483,571.247437 
	C517.466858,568.795471 517.659668,565.187622 518.614441,562.055908 
	C520.614258,555.496643 522.272400,548.943420 529.107361,545.297974 
	C530.824951,544.381836 532.682678,542.034546 532.837585,540.206177 
	C533.269592,535.107788 538.028198,531.905579 538.110413,526.775024 
	C538.129089,525.612671 539.360413,524.862976 540.431335,524.333069 
	C548.914917,520.134827 555.559082,513.105957 564.097412,508.981628 
	C566.975647,507.591339 569.973145,506.871155 573.767395,506.334869 
	C573.125549,511.886383 570.665466,516.452454 567.261536,519.458801 
	C560.348022,525.564819 555.154724,532.988037 549.183044,539.820251 
	C543.399841,546.436829 539.690857,554.739441 531.766907,560.224670 
	C534.590881,560.854675 535.128845,558.060608 537.433777,558.146484 
	C536.790344,562.141724 535.318604,566.272644 532.469421,568.371704 
	C524.765259,574.047607 523.631104,582.912292 520.262573,590.674988 
	C517.891541,596.138916 516.205750,601.895813 514.043213,607.455444 
	C509.610565,618.851440 507.704712,630.788696 506.383636,642.839661 
	C506.127991,645.171875 505.326324,648.420471 508.397278,649.373535 
	C511.117676,650.217712 513.887634,649.033569 516.136658,646.988770 
	C521.311096,642.284241 523.212280,635.743652 525.315430,629.545837 
	C526.504944,626.040344 527.860107,622.645569 529.848450,619.735840 
	C534.790833,612.502991 538.017944,604.679260 540.561035,596.325500 
	C543.303589,587.316711 549.661560,580.269043 555.502441,573.085571 
	C556.858032,571.418396 559.506958,570.343689 561.231934,572.239441 
	C562.985107,574.166199 560.845459,575.764099 559.486511,577.222595 
	C553.584717,583.556946 550.418579,591.232849 548.660767,599.579773 
	C548.525146,600.223999 548.755066,601.101929 548.400696,601.520264 
	C540.841614,610.444946 540.177185,622.117554 536.938660,632.564758 
	C535.225220,638.092041 533.129272,644.728394 534.854492,651.218201 
	C535.224548,652.610352 535.348816,654.379211 534.813599,655.648987 
	C531.823730,662.743164 532.923767,670.056458 533.750671,677.226929 
	C534.620117,684.766602 534.019043,692.158997 533.217102,699.603271 
	C532.962463,701.967285 532.375000,704.110107 530.832092,706.043091 
	C529.865417,707.254333 528.531128,708.952759 530.618042,710.312256 
	C532.252991,711.377258 533.756348,711.321838 535.443542,709.635742 
	C540.645508,704.437256 545.133362,698.612122 549.336060,692.689941 
	C554.000061,686.117737 558.748474,679.915405 565.856384,675.871460 
	C567.050476,679.680664 564.828125,685.318909 560.774475,687.452881 
	C557.906433,688.962830 556.551575,691.885559 557.357910,693.929016 
	C558.969421,698.013489 556.662964,700.803040 555.144104,703.535217 
	C551.128845,710.758179 546.449585,717.610291 542.100403,724.650696 
	C540.971130,726.478638 539.871094,728.376648 539.125366,730.379456 
	C537.099243,735.821045 534.941040,740.753235 530.212158,744.924805 
	C522.845520,751.423035 520.418335,760.400635 522.369690,770.192871 
	C522.879700,772.752258 522.650513,775.079712 522.030823,777.529663 
	C521.040161,781.446533 520.790710,785.293091 522.305054,789.285828 
	C523.758911,793.119141 521.529419,797.325073 517.791199,798.992065 
	C513.226868,801.027466 512.361938,803.377869 514.128174,808.295837 
	C514.500061,809.331238 514.729248,810.845154 514.244263,811.691895 
	C510.990814,817.372009 507.864838,823.064880 507.906982,829.816406 
	C504.806671,829.729614 506.006134,827.028076 504.632111,826.208679 
	C502.904114,827.711487 501.283112,829.362427 498.301178,829.166443 
	C498.999878,825.140564 500.695953,821.715027 502.828705,818.725098 
	C506.650421,813.367371 506.654449,807.663452 505.115631,801.799316 
	C504.181030,798.237793 503.265533,795.125061 505.139160,791.348816 
	C505.836426,789.943481 504.714172,786.921021 505.079773,784.584717 
	C505.762421,780.222473 505.918884,775.835327 508.142029,771.721313 
	C509.336609,769.510620 508.933441,766.826721 507.044312,764.295288 
	C505.330414,761.998718 504.780670,758.843689 503.661774,756.089783 
	C502.564209,753.388367 502.105255,750.521606 499.920654,748.151245 
	C497.902222,745.961182 498.262543,742.836304 499.431244,740.110168 
	C501.796387,734.593140 501.957367,729.671570 495.746796,726.222107 
	C495.061737,726.545837 494.046661,727.025513 492.794067,727.617432 
	C490.824982,723.585938 487.540558,720.169861 489.437317,715.167297 
	C492.018707,714.626770 493.629547,715.653381 494.635010,718.278198 
z"/>
<path fill="#000000" opacity="1.000000" stroke="none" 
	d="
M329.564758,820.919067 
	C327.583862,818.647705 326.351776,816.411865 325.505615,813.782471 
	C321.581421,801.588135 317.114807,789.581238 313.469574,777.278625 
	C311.714203,771.354309 308.444366,765.827393 305.445557,760.347534 
	C304.205231,758.080933 303.944305,755.631836 303.163849,753.327820 
	C301.754578,749.167542 298.677948,745.972046 297.158295,742.221985 
	C295.674377,738.559937 294.432068,734.808411 292.163666,731.569702 
	C290.782349,729.597473 290.504547,727.724060 290.958588,725.413879 
	C293.728119,725.305115 293.589996,728.456299 295.574310,728.947388 
	C297.068542,729.517212 297.584625,727.404541 299.483521,727.705872 
	C309.536896,736.558472 309.532227,751.783569 318.577087,761.756592 
	C321.275116,760.099854 321.139862,757.536987 321.868439,755.783936 
	C323.520325,751.809326 324.587250,748.252075 329.702057,747.262817 
	C331.185577,746.975891 332.537415,743.947571 333.352295,741.698059 
	C337.174835,731.146118 342.225037,720.773743 342.957611,709.547546 
	C343.534180,700.712097 347.665039,692.392822 346.011597,683.281616 
	C345.334320,679.549622 348.426483,676.095459 348.104218,672.157166 
	C347.753052,667.865723 349.803009,663.795410 349.284790,659.439392 
	C349.118042,658.038086 349.342804,656.189514 350.154358,655.134888 
	C357.883270,645.091614 359.076416,632.813843 362.305878,621.181213 
	C363.889923,615.475403 366.480530,610.016357 368.466400,604.380249 
	C370.150513,599.600647 370.245789,594.591309 371.611206,589.787964 
	C374.722992,578.840698 377.734741,567.858765 380.454041,556.808960 
	C381.644318,551.972351 381.445038,546.927002 380.847321,541.947693 
	C380.627014,540.112427 379.971466,538.660156 377.953400,538.467285 
	C375.874512,538.268677 374.392120,539.481323 373.594543,541.204102 
	C372.906982,542.689453 372.579071,544.379578 372.312195,546.015076 
	C370.483063,557.225098 364.216309,563.773254 352.347595,564.938843 
	C352.362579,562.136780 354.387177,560.939392 356.216156,559.743896 
	C358.442780,558.288513 360.861847,557.127502 363.088409,555.671997 
	C365.193695,554.295776 367.128021,552.708008 367.228821,549.829834 
	C367.514648,541.668640 367.676392,541.199524 372.570984,532.883911 
	C374.452148,532.350098 374.691010,534.869507 376.407623,534.913635 
	C379.248962,532.829834 380.525482,529.408203 382.502197,526.632568 
	C384.934570,523.217102 387.494843,520.101624 390.535126,517.218567 
	C393.228973,514.664062 396.501770,512.227478 396.290710,507.736206 
	C396.260162,507.085510 397.013855,505.919830 397.582642,505.793427 
	C402.969360,504.596313 403.860504,499.829865 405.543213,495.816467 
	C410.219391,484.663635 418.391968,475.670929 424.200867,465.233459 
	C426.922058,460.343994 430.123169,455.601196 430.557007,449.634277 
	C429.286316,448.125458 427.881439,450.572205 426.625458,449.732605 
	C426.156891,448.949585 426.491455,448.355103 426.904236,447.850586 
	C434.771942,438.233917 442.894867,428.845123 451.796997,420.158661 
	C453.520844,418.476593 456.527130,417.072510 454.986664,414.183197 
	C453.457336,411.314728 450.588043,412.930756 448.208191,413.412872 
	C447.764374,413.502777 447.273956,413.362762 446.287323,412.741730 
	C449.528656,409.481812 452.198700,405.757233 456.431580,403.469879 
	C461.957855,400.483612 462.126343,399.070038 458.387878,393.862427 
	C455.962585,390.484009 453.636017,387.053741 450.632599,384.130402 
	C449.475189,383.003815 447.881836,381.710876 448.678894,379.888580 
	C449.518402,377.969238 451.611542,377.716064 453.438019,377.908356 
	C457.894867,378.377594 462.329681,379.060181 466.769928,379.681458 
	C472.047150,380.419830 477.317841,381.132782 482.677765,380.722900 
	C483.979218,380.623352 485.382690,380.688690 486.616241,381.072998 
	C491.905212,382.720825 492.796051,384.813751 488.949799,388.814697 
	C482.531311,395.491302 477.647858,403.161682 472.868774,410.965057 
	C471.232727,413.636414 468.111176,414.576813 466.044159,416.704102 
	C460.846069,422.053772 456.522369,427.937561 452.633606,434.437988 
	C448.977203,440.550079 443.290771,445.592499 439.282318,451.664307 
	C433.072723,461.070282 426.315399,470.135254 421.479675,480.430756 
	C418.733978,486.276459 413.341400,490.400299 410.570862,496.393738 
	C406.418335,505.376556 401.350616,513.952576 397.475677,523.044128 
	C389.062958,542.782349 384.112671,563.615234 379.912079,584.558716 
	C378.632019,590.941162 378.669098,597.775757 377.757019,604.263123 
	C376.427277,613.721863 377.432556,623.334167 374.994202,632.710205 
	C373.373444,638.942505 373.314636,645.518738 371.667480,651.839478 
	C367.451019,668.019958 365.424042,684.708008 360.176788,700.669556 
	C353.577118,720.744812 350.187256,741.421082 348.055237,762.446899 
	C347.346100,769.440735 345.490387,777.070190 346.359833,783.453186 
	C347.555115,792.228027 344.482025,800.673035 346.416962,809.047791 
	C348.476288,817.960693 343.277557,824.282043 339.244934,832.931824 
	C339.076630,825.233521 331.691040,825.874695 329.564758,820.919067 
z"/>
<path fill="#000000" opacity="1.000000" stroke="none" 
	d="
M438.663849,752.510193 
	C435.709137,752.655884 434.333344,753.819458 433.636963,756.613342 
	C431.813660,763.928467 429.028717,770.992065 427.896759,778.501709 
	C427.656860,780.093506 426.322601,781.049927 425.100922,781.888550 
	C422.839050,783.441406 420.904572,783.662842 421.112091,780.031189 
	C421.523682,772.829529 420.300964,765.623596 419.650085,758.589722 
	C419.078033,752.407715 418.150726,746.137085 419.569183,740.360291 
	C421.700104,731.681885 421.078674,722.280518 425.978058,714.298828 
	C426.149597,714.019348 426.357269,713.683044 426.345245,713.381287 
	C425.860931,701.234985 428.540131,689.330627 429.099152,677.256958 
	C429.501526,668.565796 432.547546,660.326538 434.340668,651.871521 
	C434.872559,649.363525 435.478729,647.140503 433.785889,644.786926 
	C432.974213,643.658386 433.657806,642.232849 434.438354,641.050720 
	C439.392975,640.428223 439.058533,644.797363 438.752960,646.887390 
	C438.128143,651.161255 438.308197,655.144409 439.672974,659.130920 
	C440.158813,660.549927 438.830383,661.225098 438.719391,662.280640 
	C438.485260,664.507202 435.862274,667.291382 440.055542,668.712341 
	C440.578003,668.889343 441.060150,670.104736 441.038513,670.823242 
	C440.857727,676.820984 442.310730,682.662292 442.626740,688.641052 
	C443.292419,701.236206 446.194244,713.580872 450.924164,725.298828 
	C453.746002,732.289612 455.309174,739.752563 459.803925,746.238281 
	C461.462341,748.631287 462.118347,753.104858 462.054230,756.628845 
	C461.918457,764.088379 464.704437,770.939758 465.867462,778.111877 
	C467.557953,788.536682 468.165985,799.138367 471.534607,809.368530 
	C472.830688,813.304565 471.928345,818.222900 472.769958,822.647949 
	C472.965393,823.675537 472.632141,824.688416 471.536407,825.112671 
	C470.427124,825.542236 469.770966,824.693420 468.938416,824.126343 
	C455.169037,814.744751 454.056488,799.883240 451.592346,785.369141 
	C450.618713,779.634338 451.136627,773.885315 449.946411,768.160278 
	C448.891327,763.085571 446.017731,759.181885 443.985382,754.733521 
	C442.740173,752.008057 440.423645,753.737793 438.663849,752.510193 
z"/>
<path fill="#000000" opacity="1.000000" stroke="none" 
	d="
M142.117767,765.115967 
	C137.587219,772.934021 137.075134,780.802307 139.586136,788.976685 
	C139.995148,790.308105 140.027328,791.428345 139.058868,792.681702 
	C131.951385,801.879517 126.888969,812.358337 120.760071,822.172119 
	C120.048645,823.311218 119.482048,824.507874 117.955185,825.247742 
	C115.768028,824.256226 115.256386,822.422546 115.684143,820.118042 
	C117.019989,812.921387 118.118027,805.662476 120.897156,798.824402 
	C122.157501,795.723389 122.681313,792.506348 120.545135,789.780762 
	C118.168022,786.747864 119.191223,784.314087 121.520142,782.419556 
	C124.159157,780.272827 125.607864,782.967285 127.199997,784.566284 
	C127.385376,784.752441 127.784576,784.725708 128.173096,784.818848 
	C129.556366,783.242493 128.831146,781.325684 128.854492,779.599976 
	C128.923096,774.529785 127.086121,769.514099 128.774261,764.359009 
	C129.444778,762.311462 128.401047,760.326538 126.236946,759.494751 
	C122.354630,758.002808 121.510460,754.756409 120.799194,751.222351 
	C127.272972,750.331360 128.701019,751.516418 126.969208,756.531250 
	C131.445023,755.743835 134.718628,757.668579 137.694962,761.819031 
	C139.510269,755.928528 141.152832,750.809082 142.658615,745.649719 
	C144.015289,741.001404 145.780182,736.553894 148.201157,732.344727 
	C150.535980,728.285339 152.088577,724.278442 151.012268,719.159546 
	C149.517349,712.049744 153.840225,706.466980 158.982727,702.694092 
	C164.055313,698.972534 163.516983,694.326904 162.376236,690.130432 
	C160.223709,682.212036 158.616135,674.221252 159.037598,666.150818 
	C159.538437,656.560425 156.621475,647.171570 158.090012,637.589966 
	C159.147293,630.691711 160.485428,623.844727 163.028397,617.363098 
	C164.740723,612.998535 169.096161,612.202515 173.554871,611.493591 
	C173.691971,613.562256 172.083694,614.639526 171.168716,616.336304 
	C168.895004,614.034973 167.372360,615.205444 166.072662,617.205627 
	C165.054428,618.772705 164.423782,620.478821 164.536163,622.379822 
	C164.983261,629.941833 164.784607,637.624451 166.143433,645.020264 
	C167.008896,649.730957 168.013763,654.361023 168.214737,659.161133 
	C168.270813,660.500732 168.841949,661.839172 170.191833,662.433167 
	C174.880829,664.496094 174.816422,668.825562 173.393997,672.146301 
	C169.633316,680.925720 169.711319,690.279236 168.262558,699.390564 
	C167.636124,703.330261 166.937698,707.237000 165.918182,711.075562 
	C164.804428,715.268799 163.520813,719.358582 165.355988,723.711426 
	C166.289017,725.924561 164.806091,727.796814 164.074203,729.827087 
	C162.604813,733.903198 159.602936,737.867615 162.248077,742.513733 
	C156.191483,748.056519 150.225357,753.640259 147.918442,761.787964 
	C145.526138,761.912354 147.154480,759.834778 145.874496,759.184387 
	C144.248718,760.710266 143.041962,762.593811 142.117767,765.115967 
z"/>
<path fill="#000000" opacity="1.000000" stroke="none" 
	d="
M288.478760,249.019135 
	C295.683258,248.914795 301.923706,250.295044 307.209900,254.980026 
	C308.769958,256.362640 311.026703,256.928009 312.824951,258.084442 
	C313.938202,258.800354 314.904144,259.999878 314.530975,261.449036 
	C314.103333,263.109741 312.538361,262.924805 311.220154,262.937134 
	C304.313599,263.001648 297.397919,262.867737 290.504883,263.202820 
	C287.936981,263.327637 285.792358,265.181885 284.282349,267.317505 
	C278.558655,275.412628 271.762726,282.370178 263.360138,287.719971 
	C260.548615,289.510010 259.402313,292.063538 260.794189,296.237885 
	C268.819550,294.865295 276.926788,293.505066 285.022095,292.077454 
	C287.306061,291.674683 289.560516,291.096954 291.818848,290.558868 
	C294.007568,290.037445 295.377502,290.678284 295.701874,293.457611 
	C290.998047,295.176636 286.289917,297.092163 282.503204,300.617554 
	C281.827118,301.247009 281.028992,301.186554 280.175110,300.930145 
	C276.587372,299.852753 275.054688,300.968994 276.027527,304.822845 
	C276.577271,307.000458 275.407196,308.325928 273.532990,309.085602 
	C272.157288,309.643250 270.720978,310.038422 269.853180,311.199677 
	C269.899078,312.935883 271.348663,312.406158 272.082855,312.910004 
	C273.839600,314.115509 273.992126,315.527191 272.710968,317.126343 
	C271.284393,318.907013 269.852661,318.401947 268.520874,316.993011 
	C267.265686,315.665161 265.967926,314.361755 264.851074,312.921844 
	C261.669098,308.819366 256.598511,308.244324 252.349075,306.164246 
	C249.555984,304.797089 247.324966,302.995422 247.859665,299.756378 
	C248.866852,293.655182 245.711884,289.840820 241.590027,286.131653 
	C236.768646,281.792999 237.198746,277.899445 242.959122,274.929291 
	C245.656189,273.538666 247.591003,272.030853 248.628525,269.144592 
	C249.408371,266.975159 251.581161,266.078369 253.524323,265.124359 
	C259.623108,262.130157 265.535309,258.573547 272.683624,258.679718 
	C273.725922,258.695221 274.722443,258.366180 275.201996,257.368408 
	C277.798218,251.966583 283.457489,251.327408 288.478760,249.019135 
z"/>
<path fill="#000000" opacity="1.000000" stroke="none" 
	d="
M625.080933,485.145050 
	C623.897339,487.173309 625.963989,488.450073 625.688599,490.514648 
	C623.607117,489.878906 621.854980,489.129608 619.382996,489.852051 
	C614.675171,491.227997 611.489685,487.051025 608.310486,484.370148 
	C605.587097,482.073669 602.650940,480.327240 599.547363,478.798553 
	C593.367798,475.754730 588.242188,471.211090 582.713257,467.242737 
	C582.454956,467.057343 582.557983,466.368500 582.472900,465.775879 
	C584.926758,464.501465 585.810242,468.046906 589.217102,466.636414 
	C590.890686,465.201050 591.224426,461.153137 594.170654,458.458984 
	C596.545898,460.039001 599.409485,460.599274 602.310730,461.023132 
	C609.335999,462.049469 613.669189,466.220367 616.142395,472.688385 
	C616.534180,473.712860 617.371826,475.139069 618.227661,475.320343 
	C623.527466,476.442932 623.564941,481.193573 625.080933,485.145050 
z"/>
<path fill="#000000" opacity="1.000000" stroke="none" 
	d="
M340.501068,172.409271 
	C345.676025,179.476608 349.108582,187.296829 354.805481,193.578186 
	C356.003265,194.898849 356.368378,196.388672 355.528290,198.715881 
	C333.907928,173.504623 320.527588,143.463104 302.168793,116.627640 
	C308.269073,119.508652 311.542847,125.154724 315.786346,129.788132 
	C322.887665,137.541992 327.160126,147.377411 334.060150,155.256363 
	C343.598938,166.148453 351.720398,178.081207 360.182068,189.769135 
	C362.413391,192.851151 364.604431,195.981812 366.534058,199.255112 
	C367.613434,201.086151 367.556274,203.464233 365.567413,204.601562 
	C363.445221,205.815140 362.432861,203.701080 361.343262,202.237762 
	C359.663635,199.982101 360.319305,196.665741 359.063324,194.833649 
	C352.468689,185.214157 346.015472,175.489517 338.793152,166.081726 
	C339.315948,168.078613 339.838776,170.075500 340.501068,172.409271 
z"/>
<path fill="#000000" opacity="1.000000" stroke="none" 
	d="
M183.932648,599.215698 
	C187.639450,587.095337 192.214172,575.743103 197.668518,564.778625 
	C198.858185,562.387146 200.070374,557.866028 203.478333,559.175293 
	C207.294220,560.641235 204.460205,564.232056 203.680756,566.949463 
	C200.811676,576.951904 194.844833,585.638733 191.622849,595.489075 
	C189.701492,601.363098 186.032166,606.711243 187.779541,613.561462 
	C188.727280,617.276855 186.637466,621.043213 185.380219,624.585571 
	C181.920441,634.333923 180.444717,644.698303 176.141571,654.720825 
	C173.185349,652.003357 174.070236,649.203552 174.653366,646.366455 
	C177.850525,630.810791 179.696228,614.989014 183.932648,599.215698 
z"/>
<path fill="#000000" opacity="1.000000" stroke="none" 
	d="
M457.408203,527.679688 
	C456.620117,531.370117 454.405029,534.285461 454.596802,537.972229 
	C454.663177,539.248535 453.345703,540.386047 451.897949,540.511841 
	C450.165100,540.662415 449.874725,539.192810 449.433014,537.912415 
	C448.353668,534.783936 447.515198,531.762817 449.673157,528.644287 
	C451.191437,526.450012 448.777222,524.201904 449.381317,521.877991 
	C451.635468,513.206543 452.182190,503.969666 458.006073,496.493805 
	C459.023163,495.188232 460.027649,493.518311 459.620422,491.892609 
	C457.774811,484.524994 462.958984,480.740906 466.966400,476.025024 
	C469.705597,479.735901 469.114136,483.054718 468.350525,486.985931 
	C466.085297,498.647644 462.691223,510.025421 460.327454,521.642334 
	C459.860138,523.938904 458.105316,525.300903 457.408203,527.679688 
z"/>
<path fill="#000000" opacity="1.000000" stroke="none" 
	d="
M313.476746,75.743851 
	C321.450623,78.907295 329.011261,81.893860 334.975220,88.053986 
	C337.341309,90.497917 336.083191,93.946320 338.936401,96.219803 
	C343.125824,99.557999 345.766357,104.313614 348.313812,109.114677 
	C349.750763,111.822922 353.350769,112.915977 355.047302,115.974152 
	C356.757690,119.057274 358.012268,122.155090 358.289215,125.945045 
	C341.914093,108.771095 324.414124,92.780174 308.814148,74.744164 
	C310.768250,73.644165 311.784363,75.330803 313.476746,75.743851 
z"/>
<path fill="#000000" opacity="1.000000" stroke="none" 
	d="
M515.970825,815.981873 
	C538.447754,788.033936 551.224243,775.718994 556.882507,776.689941 
	C557.434692,781.827026 554.607849,786.003906 551.346436,788.881226 
	C541.247375,797.791077 532.437256,807.865540 523.341125,817.704956 
	C521.875061,819.290710 520.182190,821.404419 517.342224,820.229675 
	C515.445801,819.445068 514.854980,818.153503 515.970825,815.981873 
z"/>
<path fill="#000000" opacity="1.000000" stroke="none" 
	d="
M646.676147,647.311035 
	C648.238647,646.763184 649.496399,646.431519 650.220764,645.098450 
	C653.475342,639.109314 654.991211,639.032715 658.724243,644.670288 
	C661.964355,644.550415 664.699280,643.201660 667.182129,641.139648 
	C668.263184,640.241821 669.590881,638.680115 670.847717,640.729919 
	C671.816467,642.309875 670.761658,643.100037 669.129028,643.346741 
	C666.593140,643.730164 669.335388,646.699707 666.069702,647.462891 
	C662.536621,647.842224 657.522888,647.798279 656.583008,654.219666 
	C656.495361,654.818054 655.328064,655.813721 654.858276,655.712646 
	C651.295410,654.946228 650.296204,658.228821 649.721619,659.960999 
	C648.773987,662.817566 646.861877,663.395630 644.692078,663.668945 
	C642.757690,663.912476 639.934143,665.361938 639.019104,662.531189 
	C638.085815,659.644226 635.877136,656.428833 637.425415,653.582886 
	C638.478088,651.647766 641.464172,650.771301 643.571716,649.400024 
	C644.524658,648.780090 645.443420,648.107849 646.676147,647.311035 
z"/>
<path fill="#000000" opacity="1.000000" stroke="none" 
	d="
M410.929504,134.041962 
	C407.663757,127.226868 401.384308,123.483040 397.124786,117.982941 
	C395.555573,115.956741 393.875153,114.188622 394.990997,111.379539 
	C404.648529,113.843842 427.917908,145.716507 427.512573,156.625534 
	C422.867310,154.519028 420.286560,150.773407 418.191620,146.901260 
	C415.904449,142.673874 413.917694,138.289520 410.929504,134.041962 
z"/>
<path fill="#000000" opacity="1.000000" stroke="none" 
	d="
M284.832581,642.623291 
	C282.350830,646.218811 280.529083,650.063843 275.465332,651.177856 
	C275.155426,646.777405 276.903595,642.275635 279.321930,640.844421 
	C283.556274,638.338501 284.675476,633.141785 289.201630,631.329102 
	C289.832458,631.076477 290.474640,630.087158 290.566376,629.369202 
	C291.780640,619.865906 302.156097,619.963684 305.802124,613.052002 
	C306.187347,613.418884 306.572540,613.785767 306.957733,614.152588 
	C304.389160,617.422241 301.532562,620.509277 299.317261,624.002930 
	C295.700317,629.707092 290.688446,634.136780 286.308777,639.139282 
	C285.469910,640.097534 285.315399,641.197815 284.832581,642.623291 
z"/>
<path fill="#000000" opacity="1.000000" stroke="none" 
	d="
M252.478577,134.613525 
	C259.874817,140.598206 266.223328,146.983353 269.458466,155.848343 
	C269.725677,156.580566 270.448151,157.247406 269.795105,158.130432 
	C268.599609,158.618759 267.787750,157.736160 267.283264,157.048157 
	C263.700806,152.162674 259.028717,149.169998 253.141296,147.587585 
	C250.538635,146.888062 248.955734,144.408356 248.979218,141.705017 
	C256.053497,138.011032 244.874573,136.034088 248.557968,132.785080 
	C250.063828,132.218918 250.894821,133.979340 252.478577,134.613525 
z"/>
<path fill="#000000" opacity="1.000000" stroke="none" 
	d="
M203.689545,669.742554 
	C207.634079,662.260132 208.758102,654.401978 209.384521,646.546631 
	C209.753632,641.917908 211.944473,641.968994 215.775040,642.771545 
	C213.605377,646.439209 215.591537,651.202454 211.152527,653.816284 
	C209.768509,654.631226 211.108414,656.672729 210.822357,658.079712 
	C208.937546,667.349854 205.432922,676.036865 201.067963,684.392578 
	C200.886703,684.739563 200.266937,684.857483 199.227890,685.419189 
	C198.360291,679.358582 201.669632,674.891296 203.689545,669.742554 
z"/>
<path fill="#000000" opacity="1.000000" stroke="none" 
	d="
M587.287598,641.303223 
	C582.936829,647.026367 578.778076,652.442566 574.582397,657.906921 
	C571.681274,655.800598 572.252625,653.769409 573.876343,652.080261 
	C580.897888,644.775757 585.309570,635.508179 592.116028,628.045593 
	C593.792725,626.207275 595.432312,624.521118 598.904236,624.022949 
	C596.591003,631.239014 591.136780,635.542419 587.287598,641.303223 
z"/>
<path fill="#000000" opacity="1.000000" stroke="none" 
	d="
M374.543274,145.484818 
	C372.364502,142.937958 369.492859,141.272308 369.125244,137.958405 
	C370.819702,136.741638 371.829803,137.593262 372.385651,138.556381 
	C374.711182,142.585800 378.282318,145.313431 382.022247,147.776840 
	C389.039886,152.399200 388.329285,159.857819 389.135651,166.935623 
	C383.153992,160.653748 379.142181,153.082214 374.543274,145.484818 
z"/>
<path fill="#000000" opacity="1.000000" stroke="none" 
	d="
M137.568237,704.602051 
	C138.433350,702.137512 138.230530,699.541870 141.119400,698.112915 
	C141.491394,701.557678 139.593872,705.998596 145.497986,706.749573 
	C143.600494,710.039917 141.354706,712.795227 142.848495,716.468628 
	C143.226822,717.398987 141.971100,719.041748 141.531708,718.751709 
	C137.627182,716.174683 133.158356,721.154358 129.353775,717.685059 
	C130.506287,712.465149 136.880981,710.538696 137.568237,704.602051 
z"/>
<path fill="#000000" opacity="1.000000" stroke="none" 
	d="
M322.425446,594.353638 
	C321.973389,595.729797 321.313934,596.530029 320.201080,595.634705 
	C319.009247,594.675903 318.871521,593.202454 319.746674,592.035950 
	C321.026215,590.330444 322.301392,588.333557 324.071838,587.339783 
	C328.868225,584.647278 329.386566,578.476013 333.912109,575.121765 
	C334.649841,580.989075 330.662720,588.576965 325.753479,589.958252 
	C323.128937,590.696716 322.711426,592.004333 322.425446,594.353638 
z"/>
<path fill="#000000" opacity="1.000000" stroke="none" 
	d="
M455.425781,140.506226 
	C453.776245,136.864563 452.262421,133.570953 450.768860,130.268173 
	C450.729401,130.180939 450.910461,129.993988 451.385193,129.141769 
	C456.956818,135.254288 458.684418,142.963989 462.951416,150.440735 
	C459.468323,148.572037 458.177338,146.731186 455.425781,140.506226 
z"/>
<path fill="#000000" opacity="1.000000" stroke="none" 
	d="
M592.901978,617.514771 
	C595.746826,614.416016 598.489868,611.614380 601.455933,608.584961 
	C601.798889,611.711670 596.088623,619.768127 593.564514,619.951172 
	C591.872681,620.073853 592.684570,618.676758 592.901978,617.514771 
z"/>
<path fill="#000000" opacity="1.000000" stroke="none" 
	d="
M602.936340,616.007202 
	C604.795410,614.794128 605.425354,612.374817 608.413879,612.593933 
	C606.022095,616.721619 603.779175,620.485535 599.673401,623.691467 
	C598.503418,619.594299 601.374878,618.286194 602.936340,616.007202 
z"/>
<path fill="#000000" opacity="1.000000" stroke="none" 
	d="
M333.910126,585.738220 
	C336.002380,582.666321 337.899780,579.865723 339.797150,577.065125 
	C339.379883,580.903625 338.575836,584.614014 335.974457,587.401978 
	C334.374634,589.116577 332.926666,588.994080 333.910126,585.738220 
z"/>
<path fill="#000000" opacity="1.000000" stroke="none" 
	d="
M393.555969,174.010071 
	C395.716980,172.957581 396.533508,173.099518 397.994141,174.767105 
	C399.562134,176.557281 400.681610,178.462402 398.592987,181.002548 
	C396.184753,179.140854 394.973145,176.674973 393.555969,174.010071 
z"/>
<path fill="#000000" opacity="1.000000" stroke="none" 
	d="
M389.077087,104.628311 
	C389.562042,105.793678 390.465332,106.494316 389.990326,107.963333 
	C385.767487,106.996429 385.761719,102.877975 383.018738,99.538155 
	C386.567780,100.508255 387.775909,102.402824 389.077087,104.628311 
z"/>
<path fill="#000000" opacity="1.000000" stroke="none" 
	d="
M379.607483,246.124908 
	C375.997711,244.444946 372.389252,243.170059 370.683472,239.319687 
	C374.163055,241.166229 377.883728,242.560181 380.797302,245.347321 
	C380.867157,245.414124 380.827667,245.742981 380.742859,245.796295 
	C380.480438,245.961227 380.171326,246.051941 379.607483,246.124908 
z"/>
</svg>